<svg xmlns="http://www.w3.org/2000/svg" xmlns:xlink="http://www.w3.org/1999/xlink" width="602" height="491" viewBox="0 0 602 491">
    <defs>
        <path id="a" d="M0 0h468.195v250.72H0z"/>
        <path id="c" d="M39.137 533.324H0V0h600.101v533.324h-39.137V114.497c0-19.213-15.575-34.788-34.789-34.788-19.213 0-34.788 15.575-34.788 34.788v418.827h-81.173V114.497c0-19.213-15.575-34.788-34.789-34.788-19.213 0-34.788 15.575-34.788 34.788v418.827h-81.173V114.497c0-19.213-15.575-34.788-34.789-34.788-19.213 0-34.788 15.575-34.788 34.788v418.827h-81.173V114.497c0-19.213-15.575-34.788-34.789-34.788-19.213 0-34.788 15.575-34.788 34.788v418.827z"/>
    </defs>
    <g fill="none" fill-rule="evenodd">
        <g transform="translate(67.127 52.275)">
            <mask id="b" fill="#fff">
                <use xlink:href="#a"/>
            </mask>
            <ellipse cx="234.097" cy="233.329" fill="#2FCBC8" mask="url(#b)" opacity=".345" rx="234.097" ry="233.329"/>
            <ellipse cx="236.272" cy="234.054" fill="#3FC9C7" mask="url(#b)" rx="188.438" ry="187.678"/>
        </g>
        <g transform="translate(-1 340.676)">
            <mask id="d" fill="#fff">
                <use xlink:href="#c"/>
            </mask>
            <use fill="#2C5F5F" xlink:href="#c"/>
            <g stroke="#000" stroke-linecap="square" stroke-width="1.45" mask="url(#d)" opacity=".098" style="mix-blend-mode:multiply">
                <path d="M-1.45 18.84h603M-1.45 36.231h603M-1.45 53.622h603M-1.45 71.013h603M-1.45 88.404h603M-1.45 105.795h603M-1.45 123.186h603M-1.45 140.577h603"/>
            </g>
        </g>
        <path fill="#51ABA9" d="M-1 282.705h600.101v57.97H-1z"/>
        <path fill="#1E4040" d="M544.02 426.013c-9.594 6.193-15.945 16.979-15.945 29.248V874h-37.688V455.26c0-19.213 15.575-34.788 34.788-34.788a34.626 34.626 0 0 1 18.844 5.54zM393.27 426.013c-9.594 6.193-15.945 16.979-15.945 29.248V874h-37.688V455.26c0-19.213 15.575-34.788 34.788-34.788a34.626 34.626 0 0 1 18.844 5.54zM242.52 426.013c-9.594 6.193-15.945 16.979-15.945 29.248V874h-37.688V455.26c0-19.213 15.575-34.788 34.788-34.788a34.626 34.626 0 0 1 18.844 5.54zM91.77 426.013c-9.594 6.193-15.945 16.979-15.945 29.248V874H38.137V455.26c0-19.213 15.575-34.788 34.788-34.788a34.626 34.626 0 0 1 18.844 5.54z"/>
        <g stroke="#51ABA9" stroke-linecap="square" stroke-width="4.349">
            <path d="M-1 247.923h600.101M12.77 250.097v30.435M51.907 250.097v30.435M91.044 250.097v30.435M130.181 250.097v30.435M169.319 250.097v30.435M208.456 250.097v30.435M247.593 250.097v30.435M286.73 250.097v30.435M325.867 250.097v30.435M365.004 250.097v30.435M404.14 250.097v30.435M443.278 250.097v30.435M482.415 250.097v30.435M521.552 250.097v30.435M560.689 250.097v30.435M599.826 250.097v30.435"/>
        </g>
        <g stroke="#FFF" stroke-dasharray="18.84375,20.29326923076923,26.09134615384615,28.99038461538462" stroke-linecap="round" stroke-width="5.798">
            <path d="M195.732 75.867l-20.938 33.973M163.843 158.474l-20.938 33.973M153.696 75.867l-20.938 33.973M240.667 64.273L219.73 98.246M375.472 112.098l-20.937 33.973" opacity=".362"/>
            <path d="M363.876 167.17l-20.937 33.973" opacity=".192"/>
            <path d="M394.316 201.952l-20.937 33.973" opacity=".172"/>
            <path d="M324.74 110.649l-20.938 33.973M207.328 130.939l-20.937 33.973" opacity=".362"/>
            <path d="M305.895 184.56l-20.937 33.974M262.41 148.33l-20.938 33.973M217.475 175.865l-20.938 33.973" opacity=".172"/>
            <path d="M197.181 3.404l-20.937 33.974M284.153 64.273l-20.938 33.973M385.619 20.795L364.681 54.77M426.206 61.374l-20.938 33.974M447.948 129.49l-20.937 33.972" opacity=".362"/>
        </g>
    </g>
</svg>
