<svg xmlns="http://www.w3.org/2000/svg" xmlns:xlink="http://www.w3.org/1999/xlink" width="603" height="438" viewBox="0 0 603 438">
    <defs>
        <path id="a" d="M0 0h468v251H0z"/>
        <path id="c" d="M39.13 533.956H0V0h600v533.956h-39.13v-419.37c0-19.21-15.573-34.783-34.783-34.783s-34.783 15.573-34.783 34.783v419.37h-81.16v-419.37c0-19.21-15.572-34.783-34.782-34.783-19.21 0-34.782 15.573-34.782 34.783v419.37h-81.16v-419.37c0-19.21-15.572-34.783-34.782-34.783-19.21 0-34.783 15.573-34.783 34.783v419.37h-81.16v-419.37c0-19.21-15.572-34.783-34.782-34.783-19.21 0-34.783 15.573-34.783 34.783v419.37z"/>
    </defs>
    <g fill="none" fill-rule="evenodd">
        <g transform="translate(69)">
            <mask id="b" fill="#fff">
                <use xlink:href="#a"/>
            </mask>
            <ellipse cx="234" cy="233.59" fill="#F6C429" mask="url(#b)" opacity=".345" rx="234" ry="233.59"/>
            <ellipse cx="236.173" cy="234.315" fill="#F0B90C" mask="url(#b)" rx="188.359" ry="187.887"/>
        </g>
        <g transform="translate(0 288.039)">
            <mask id="d" fill="#fff">
                <use xlink:href="#c"/>
            </mask>
            <use fill="#E28223" xlink:href="#c"/>
            <g stroke="#000" stroke-linecap="square" mask="url(#d)" opacity=".098" style="mix-blend-mode:multiply">
                <path d="M-1.45 18.863h602.9M-1.45 36.274h602.9M-1.45 53.686h602.9M-1.45 71.097h602.9M-1.45 88.509h602.9M-1.45 105.92h602.9M-1.45 123.332h602.9M-1.45 140.744h602.9"/>
            </g>
        </g>
        <path fill="#FD932B" d="M0 230h600v58.039H0z"/>
        <path fill="#BF6308" d="M544.928 373.47c-9.593 6.192-15.942 16.976-15.942 29.242v419.283h-37.682V402.712c0-19.21 15.573-34.782 34.783-34.782a34.62 34.62 0 0 1 18.84 5.54zM394.203 373.47c-9.592 6.192-15.942 16.976-15.942 29.242v419.283H340.58V402.712c0-19.21 15.572-34.782 34.782-34.782a34.62 34.62 0 0 1 18.84 5.54zM243.478 373.47c-9.592 6.192-15.942 16.976-15.942 29.242v419.283h-37.68V402.712c0-19.21 15.572-34.782 34.782-34.782a34.62 34.62 0 0 1 18.84 5.54zM92.754 373.47c-9.592 6.192-15.942 16.976-15.942 29.242v419.283H39.13V402.712c0-19.21 15.573-34.782 34.783-34.782a34.62 34.62 0 0 1 18.84 5.54z"/>
        <g stroke="#FD932B" stroke-linecap="square" stroke-width="3">
            <path d="M0 195.458h600.101M13.77 197.646v30.625M52.907 197.646v30.625M92.044 197.646v30.625M131.181 197.646v30.625M170.319 197.646v30.625M209.456 197.646v30.625M248.593 197.646v30.625M287.73 197.646v30.625M326.867 197.646v30.625M366.004 197.646v30.625M405.14 197.646v30.625M444.278 197.646v30.625M483.415 197.646v30.625M522.552 197.646v30.625M561.689 197.646v30.625M600.826 197.646v30.625"/>
        </g>
    </g>
</svg>
